<svg width="31" height="24" viewBox="0 0 31 24" fill="none" xmlns="http://www.w3.org/2000/svg">
<path d="M0.960022 23H9.85602V22.552C6.65602 22.136 5.69602 20.792 5.69602 17.56V2.87198H5.88802L14.208 23.032H15.36L22.816 2.87198H22.976V20.728C22.976 22.008 22.176 22.456 19.904 22.552V23H30.944V22.552C28.256 22.456 27.616 21.944 27.616 20.728V2.96798C27.616 1.75198 28.256 1.20798 30.944 1.11198V0.695984H22.784L16.736 17.144H16.576L9.98402 0.695984H0.960022V1.11198C3.71202 1.17598 4.89602 2.64798 4.89602 4.56798V17.56C4.89602 20.792 3.96802 22.168 0.960022 22.552V23Z" fill="white"/>
</svg>
